# xmcd
#
# Track frame offsets:
#       182
#       12360
#       24805
#       45807
#       56890
#       69347
#       80655
#       94807
#       106760
#       120227
#
# Disc length: 1787 seconds
#
# Revision: 6
# Processed by: cddbd v1.5.2PL0 Copyright (c) Steve Scherf et al.
# Submitted via: FreeDbEdit v0.1
#
DISCID=6b06f90a
DTITLE=Various Artist - A Country Christmas
DYEAR=1994
DGENRE=Country
TTITLE0=Dwight Yoakum - Santa Claus Is Back in Town
TTITLE1=George Strait - Away in a Manger
TTITLE2=Vince Gill - Do You Hear What I Hear
TTITLE3=Emmylou Harris - Light of the Stable
TTITLE4=Kenny Rogers - The First Noel
TTITLE5=Travis Tritt - Santa Looked a Lot Like Daddy
TTITLE6=Lorrie Morgan - Sleigh Ride
TTITLE7=Randy Travis - Pretty Paper
TTITLE8=The Judds - Silver Bells
TTITLE9=Sawyer Brown - Please Come Home for Christmas
EXTD=
EXTT0=
EXTT1=
EXTT2=
EXTT3=
EXTT4=
EXTT5=
EXTT6=
EXTT7=
EXTT8=
EXTT9=
PLAYORDER=
